<svg width="193" height="193" viewBox="0 0 193 193" fill="none" xmlns="http://www.w3.org/2000/svg">
<path fill-rule="evenodd" clip-rule="evenodd" d="M140.505 148.63H74.4609L92.8316 167.001C93.7809 167.95 95.0336 168.464 96.3797 168.464H140.505C155.919 168.464 168.462 155.921 168.462 140.507V96.3817C168.462 95.0434 167.941 93.7829 166.999 92.8336L148.628 74.4629V140.499C148.628 144.981 144.987 148.623 140.505 148.623V148.63Z" fill="#38807B"/>
<path fill-rule="evenodd" clip-rule="evenodd" d="M52.4607 44.3433H118.489L100.126 25.9804C99.1849 25.0311 97.9244 24.5176 96.5783 24.5176H52.4529C37.0389 24.5176 24.5039 37.0526 24.5039 52.4666V96.592C24.5039 97.9381 25.0252 99.1986 25.9667 100.132L44.3296 118.495V52.4666C44.3296 47.9848 47.9711 44.3433 52.4529 44.3433H52.4607Z" fill="#38807B"/>
<path fill-rule="evenodd" clip-rule="evenodd" d="M122.058 147.075H140.506C144.132 147.075 147.073 144.134 147.073 140.508V122.06L122.058 147.075ZM52.4655 45.9004C48.8396 45.9004 45.8984 48.8416 45.8984 52.4675V70.9315L70.9296 45.9004H52.4655V45.9004Z" fill="#38807B"/>
<path fill-rule="evenodd" clip-rule="evenodd" d="M8.64846 75.7153C-2.88282 87.2466 -2.88282 105.936 8.64846 117.468L75.5097 184.329C81.2676 190.094 88.8228 192.973 96.3858 192.973C103.949 192.973 111.496 190.094 117.262 184.329L131.571 170.02H96.3858C94.7052 170.02 93.0245 169.382 91.7407 168.098L70.7167 147.074L45.9034 122.253L24.8872 101.237C23.6033 99.9606 22.9653 98.2799 22.9653 96.5915V61.4062L8.65625 75.7153H8.64846Z" fill="#38807B"/>
<path fill-rule="evenodd" clip-rule="evenodd" d="M184.325 117.258C195.848 105.735 195.848 87.0371 184.325 75.5136L170.016 61.2045L131.773 22.9614L117.464 8.65236C111.698 2.88671 104.143 0 96.5876 0C89.0323 0 81.4771 2.88671 75.7114 8.65236L61.4023 22.9614H96.5876C98.276 22.9614 99.9567 23.5995 101.233 24.8833L122.249 45.8995L147.07 70.7128L168.094 91.7368C169.378 93.0206 170.016 94.7013 170.016 96.382V131.567L184.325 117.258V117.258Z" fill="#38807B"/>
<path d="M170.014 59.003V52.4671C170.014 36.1739 156.802 22.9619 140.501 22.9619H133.973L170.014 59.003V59.003Z" fill="#38807B"/>
<path d="M22.957 133.972V140.5C22.957 156.801 36.169 170.013 52.4622 170.013H58.9981L22.957 133.972V133.972Z" fill="#38807B"/>
</svg>
